{
    "asset" : {
        "generator" : "Khronos glTF Blender I/O v1.3.48",
        "version" : "2.0"
    },
    "scene" : 0,
    "scenes" : [
        {
            "name" : "Scene",
            "nodes" : [
                0,
                1,
                2,
                3,
                4
            ]
        }
    ],
    "nodes" : [
        {
            "name" : "Light",
            "rotation" : [
                0.16907575726509094,
                0.7558803558349609,
                -0.27217137813568115,
                0.570947527885437
            ],
            "translation" : [
                4.076245307922363,
                5.903861999511719,
                -1.0054539442062378
            ]
        },
        {
            "name" : "Camera",
            "rotation" : [
                0.483536034822464,
                0.33687159419059753,
                -0.20870360732078552,
                0.7804827094078064
            ],
            "translation" : [
                7.358891487121582,
                4.958309173583984,
                6.925790786743164
            ]
        },
        {
            "name" : "Point",
            "translation" : [
                1.0110478401184082,
                0.3965142071247101,
                1.8195383548736572
            ]
        },
        {
            "name" : "Point.001",
            "translation" : [
                2.530510902404785,
                0.3965142071247101,
                1.761791467666626
            ]
        },
        {
            "mesh" : 0,
            "name" : "Plane",
            "scale" : [
                13.33006763458252,
                13.33006763458252,
                13.33006763458252
            ],
            "translation" : [
                -0.6707603335380554,
                0,
                -0.1190042495727539
            ]
        }
    ],
    "materials" : [
        {
            "doubleSided" : true,
            "emissiveFactor" : [
                0,
                0,
                0
            ],
            "name" : "Material.001",
            "pbrMetallicRoughness" : {
                "baseColorFactor" : [
                    0.6795427203178406,
                    0.025186728686094284,
                    0.12213881313800812,
                    1
                ],
                "metallicFactor" : 0,
                "roughnessFactor" : 0.5
            }
        }
    ],
    "meshes" : [
        {
            "name" : "Plane.004",
            "primitives" : [
                {
                    "attributes" : {
                        "POSITION" : 0,
                        "NORMAL" : 1,
                        "TEXCOORD_0" : 2
                    },
                    "indices" : 3,
                    "material" : 0
                }
            ]
        }
    ],
    "accessors" : [
        {
            "bufferView" : 0,
            "componentType" : 5126,
            "count" : 1254,
            "max" : [
                0.5015751123428345,
                0.07667677104473114,
                0.30157509446144104
            ],
            "min" : [
                -0.40157508850097656,
                -0.0015749995363876224,
                -0.20157504081726074
            ],
            "type" : "VEC3"
        },
        {
            "bufferView" : 1,
            "componentType" : 5126,
            "count" : 1254,
            "type" : "VEC3"
        },
        {
            "bufferView" : 2,
            "componentType" : 5126,
            "count" : 1254,
            "type" : "VEC2"
        },
        {
            "bufferView" : 3,
            "componentType" : 5123,
            "count" : 9672,
            "type" : "SCALAR"
        }
    ],
    "bufferViews" : [
        {
            "buffer" : 0,
            "byteLength" : 15048,
            "byteOffset" : 0
        },
        {
            "buffer" : 0,
            "byteLength" : 15048,
            "byteOffset" : 15048
        },
        {
            "buffer" : 0,
            "byteLength" : 10032,
            "byteOffset" : 30096
        },
        {
            "buffer" : 0,
            "byteLength" : 19344,
            "byteOffset" : 40128
        }
    ],
    "buffers" : [
        {
            "byteLength" : 59472,
            "uri" : "data:application/octet-stream;base64,"
        }
    ]
}
