{
    "asset" : {
        "generator" : "Khronos glTF Blender I/O v1.3.48",
        "version" : "2.0"
    },
    "scene" : 0,
    "scenes" : [
        {
            "name" : "Scene",
            "nodes" : [
                0,
                1,
                2,
                3,
                4
            ]
        }
    ],
    "nodes" : [
        {
            "name" : "Light",
            "rotation" : [
                0.16907575726509094,
                0.7558803558349609,
                -0.27217137813568115,
                0.570947527885437
            ],
            "translation" : [
                4.076245307922363,
                5.903861999511719,
                -1.0054539442062378
            ]
        },
        {
            "name" : "Camera",
            "rotation" : [
                0.483536034822464,
                0.33687159419059753,
                -0.20870360732078552,
                0.7804827094078064
            ],
            "translation" : [
                7.358891487121582,
                4.958309173583984,
                6.925790786743164
            ]
        },
        {
            "name" : "Point",
            "translation" : [
                1.0110478401184082,
                0.3965142071247101,
                1.8195383548736572
            ]
        },
        {
            "name" : "Point.001",
            "translation" : [
                2.530510902404785,
                0.3965142071247101,
                1.761791467666626
            ]
        },
        {
            "mesh" : 0,
            "name" : "Plane",
            "scale" : [
                11.828038215637207,
                11.828038215637207,
                11.828038215637207
            ],
            "translation" : [
                -0.5286173224449158,
                0,
                -0.1190042495727539
            ]
        }
    ],
    "materials" : [
        {
            "doubleSided" : true,
            "emissiveFactor" : [
                0,
                0,
                0
            ],
            "name" : "Material.001",
            "pbrMetallicRoughness" : {
                "baseColorFactor" : [
                    0.6795427203178406,
                    0.025186728686094284,
                    0.12213881313800812,
                    1
                ],
                "metallicFactor" : 0,
                "roughnessFactor" : 0.5
            }
        }
    ],
    "meshes" : [
        {
            "name" : "Plane.004",
            "primitives" : [
                {
                    "attributes" : {
                        "POSITION" : 0,
                        "NORMAL" : 1
                    },
                    "indices" : 2,
                    "material" : 0
                }
            ]
        }
    ],
    "accessors" : [
        {
            "bufferView" : 0,
            "componentType" : 5126,
            "count" : 2801,
            "max" : [
                0.5013496279716492,
                0.09234511107206345,
                0.30142417550086975
            ],
            "min" : [
                -0.4013330936431885,
                -0.08222459256649017,
                -0.20145928859710693
            ],
            "type" : "VEC3"
        },
        {
            "bufferView" : 1,
            "componentType" : 5126,
            "count" : 2801,
            "type" : "VEC3"
        },
        {
            "bufferView" : 2,
            "componentType" : 5123,
            "count" : 18954,
            "type" : "SCALAR"
        }
    ],
    "bufferViews" : [
        {
            "buffer" : 0,
            "byteLength" : 33612,
            "byteOffset" : 0
        },
        {
            "buffer" : 0,
            "byteLength" : 33612,
            "byteOffset" : 33612
        },
        {
            "buffer" : 0,
            "byteLength" : 37908,
            "byteOffset" : 67224
        }
    ],
    "buffers" : [
        {
            "byteLength" : 105132,
            "uri" : "data:application/octet-stream;base64,"
        }
    ]
}
