{
    "asset" : {
        "generator" : "Khronos glTF Blender I/O v1.3.48",
        "version" : "2.0"
    },
    "scene" : 0,
    "scenes" : [
        {
            "name" : "Scene",
            "nodes" : [
                0,
                1,
                2
            ]
        }
    ],
    "nodes" : [
        {
            "name" : "Light",
            "rotation" : [
                0.16907575726509094,
                0.7558803558349609,
                -0.27217137813568115,
                0.570947527885437
            ],
            "translation" : [
                4.076245307922363,
                5.903861999511719,
                -1.0054539442062378
            ]
        },
        {
            "name" : "Camera",
            "rotation" : [
                0.483536034822464,
                0.33687159419059753,
                -0.20870360732078552,
                0.7804827094078064
            ],
            "translation" : [
                7.358891487121582,
                4.958309173583984,
                6.925790786743164
            ]
        },
        {
            "mesh" : 0,
            "name" : "Plane",
            "scale" : [
                46.428226470947266,
                14.390140533447266,
                14.390140533447266
            ],
            "translation" : [
                20.70413589477539,
                0,
                0
            ]
        }
    ],
    "animations" : [
        {
            "channels" : [
                {
                    "sampler" : 0,
                    "target" : {
                        "node" : 2,
                        "path" : "weights"
                    }
                }
            ],
            "name" : "KeyAction.001",
            "samplers" : [
                {
                    "input" : 18,
                    "interpolation" : "LINEAR",
                    "output" : 19
                }
            ]
        }
    ],
    "materials" : [
        {
            "doubleSided" : true,
            "emissiveFactor" : [
                0,
                0,
                0
            ],
            "name" : "Material",
            "pbrMetallicRoughness" : {
                "baseColorFactor" : [
                    0.8000000715255737,
                    0.003598951967433095,
                    0.011041183024644852,
                    1
                ],
                "metallicFactor" : 0,
                "roughnessFactor" : 0.5
            }
        }
    ],
    "meshes" : [
        {
            "extras" : {
                "targetNames" : [
                    "Key 1",
                    "Key 2",
                    "Key 3",
                    "Key 4",
                    "Key 5",
                    "Key 6",
                    "Key 7"
                ]
            },
            "name" : "Plane.001",
            "primitives" : [
                {
                    "attributes" : {
                        "POSITION" : 0,
                        "NORMAL" : 1,
                        "TEXCOORD_0" : 2
                    },
                    "indices" : 3,
                    "material" : 0,
                    "targets" : [
                        {
                            "POSITION" : 4,
                            "NORMAL" : 5
                        },
                        {
                            "POSITION" : 6,
                            "NORMAL" : 7
                        },
                        {
                            "POSITION" : 8,
                            "NORMAL" : 9
                        },
                        {
                            "POSITION" : 10,
                            "NORMAL" : 11
                        },
                        {
                            "POSITION" : 12,
                            "NORMAL" : 13
                        },
                        {
                            "POSITION" : 14,
                            "NORMAL" : 15
                        },
                        {
                            "POSITION" : 16,
                            "NORMAL" : 17
                        }
                    ]
                }
            ],
            "weights" : [
                0,
                0,
                0,
                0,
                0,
                0.7697368264198303,
                0.9802631735801697
            ]
        }
    ],
    "accessors" : [
        {
            "bufferView" : 0,
            "componentType" : 5126,
            "count" : 5456,
            "max" : [
                0.11157304793596268,
                0.449237585067749,
                1.0004522800445557
            ],
            "min" : [
                -1.000421404838562,
                -0.23861907422542572,
                -1.0004762411117554
            ],
            "type" : "VEC3"
        },
        {
            "bufferView" : 1,
            "componentType" : 5126,
            "count" : 5456,
            "type" : "VEC3"
        },
        {
            "bufferView" : 2,
            "componentType" : 5126,
            "count" : 5456,
            "type" : "VEC2"
        },
        {
            "bufferView" : 3,
            "componentType" : 5123,
            "count" : 42240,
            "type" : "SCALAR"
        },
        {
            "bufferView" : 4,
            "componentType" : 5126,
            "count" : 5456,
            "max" : [
                0,
                0.17181915044784546,
                0
            ],
            "min" : [
                0,
                -1.0279473066329956,
                0
            ],
            "type" : "VEC3"
        },
        {
            "bufferView" : 5,
            "componentType" : 5126,
            "count" : 5456,
            "type" : "VEC3"
        },
        {
            "bufferView" : 6,
            "componentType" : 5126,
            "count" : 5456,
            "max" : [
                0,
                0.17181915044784546,
                0
            ],
            "min" : [
                0,
                -0.5128825902938843,
                0
            ],
            "type" : "VEC3"
        },
        {
            "bufferView" : 7,
            "componentType" : 5126,
            "count" : 5456,
            "type" : "VEC3"
        },
        {
            "bufferView" : 8,
            "componentType" : 5126,
            "count" : 5456,
            "max" : [
                0,
                0.17181915044784546,
                0
            ],
            "min" : [
                0,
                -0.5617605447769165,
                0
            ],
            "type" : "VEC3"
        },
        {
            "bufferView" : 9,
            "componentType" : 5126,
            "count" : 5456,
            "type" : "VEC3"
        },
        {
            "bufferView" : 10,
            "componentType" : 5126,
            "count" : 5456,
            "max" : [
                0,
                0.17181915044784546,
                0
            ],
            "min" : [
                0,
                -0.43565502762794495,
                0
            ],
            "type" : "VEC3"
        },
        {
            "bufferView" : 11,
            "componentType" : 5126,
            "count" : 5456,
            "type" : "VEC3"
        },
        {
            "bufferView" : 12,
            "componentType" : 5126,
            "count" : 5456,
            "max" : [
                0,
                0.17181915044784546,
                0
            ],
            "min" : [
                0,
                -0.5188708305358887,
                0
            ],
            "type" : "VEC3"
        },
        {
            "bufferView" : 13,
            "componentType" : 5126,
            "count" : 5456,
            "type" : "VEC3"
        },
        {
            "bufferView" : 14,
            "componentType" : 5126,
            "count" : 5456,
            "max" : [
                0,
                0.09105044603347778,
                0
            ],
            "min" : [
                0,
                -0.05139888823032379,
                0
            ],
            "type" : "VEC3"
        },
        {
            "bufferView" : 15,
            "componentType" : 5126,
            "count" : 5456,
            "type" : "VEC3"
        },
        {
            "bufferView" : 16,
            "componentType" : 5126,
            "count" : 5456,
            "max" : [
                0,
                0.17181915044784546,
                0
            ],
            "min" : [
                0,
                -0.0018332302570343018,
                0
            ],
            "type" : "VEC3"
        },
        {
            "bufferView" : 17,
            "componentType" : 5126,
            "count" : 5456,
            "type" : "VEC3"
        },
        {
            "bufferView" : 18,
            "componentType" : 5126,
            "count" : 201,
            "max" : [
                8.333333333333334
            ],
            "min" : [
                0
            ],
            "type" : "SCALAR"
        },
        {
            "bufferView" : 19,
            "componentType" : 5126,
            "count" : 1407,
            "type" : "SCALAR"
        }
    ],
    "bufferViews" : [
        {
            "buffer" : 0,
            "byteLength" : 65472,
            "byteOffset" : 0
        },
        {
            "buffer" : 0,
            "byteLength" : 65472,
            "byteOffset" : 65472
        },
        {
            "buffer" : 0,
            "byteLength" : 43648,
            "byteOffset" : 130944
        },
        {
            "buffer" : 0,
            "byteLength" : 84480,
            "byteOffset" : 174592
        },
        {
            "buffer" : 0,
            "byteLength" : 65472,
            "byteOffset" : 259072
        },
        {
            "buffer" : 0,
            "byteLength" : 65472,
            "byteOffset" : 324544
        },
        {
            "buffer" : 0,
            "byteLength" : 65472,
            "byteOffset" : 390016
        },
        {
            "buffer" : 0,
            "byteLength" : 65472,
            "byteOffset" : 455488
        },
        {
            "buffer" : 0,
            "byteLength" : 65472,
            "byteOffset" : 520960
        },
        {
            "buffer" : 0,
            "byteLength" : 65472,
            "byteOffset" : 586432
        },
        {
            "buffer" : 0,
            "byteLength" : 65472,
            "byteOffset" : 651904
        },
        {
            "buffer" : 0,
            "byteLength" : 65472,
            "byteOffset" : 717376
        },
        {
            "buffer" : 0,
            "byteLength" : 65472,
            "byteOffset" : 782848
        },
        {
            "buffer" : 0,
            "byteLength" : 65472,
            "byteOffset" : 848320
        },
        {
            "buffer" : 0,
            "byteLength" : 65472,
            "byteOffset" : 913792
        },
        {
            "buffer" : 0,
            "byteLength" : 65472,
            "byteOffset" : 979264
        },
        {
            "buffer" : 0,
            "byteLength" : 65472,
            "byteOffset" : 1044736
        },
        {
            "buffer" : 0,
            "byteLength" : 65472,
            "byteOffset" : 1110208
        },
        {
            "buffer" : 0,
            "byteLength" : 804,
            "byteOffset" : 1175680
        },
        {
            "buffer" : 0,
            "byteLength" : 5628,
            "byteOffset" : 1176484
        }
    ],
    "buffers" : [
        {
            "byteLength" : 1182112,
            "uri" : "data:application/octet-stream;base64,"
        }
    ]
}
